HIERARCHY
ROOT Hips
{
	OFFSET 0.000000 0.000000 0.000000
	CHANNELS 6 Xposition Yposition Zposition Zrotation Yrotation Xrotation 
	JOINT LHipJoint
	{
		OFFSET 0.000000 0.000000 0.000000
		CHANNELS 3 Zrotation Yrotation Xrotation
		JOINT LeftUpLeg
		{
			OFFSET 1.363060 -1.794630 0.839290
			CHANNELS 3 Zrotation Yrotation Xrotation
			JOINT LeftLeg
			{
				OFFSET 2.448110 -6.726130 0.000000
				CHANNELS 3 Zrotation Yrotation Xrotation
				JOINT LeftFoot
				{
					OFFSET 2.562200 -7.039590 0.000000
					CHANNELS 3 Zrotation Yrotation Xrotation
					JOINT LeftToeBase
					{
						OFFSET 0.157640 -0.433110 2.322550
						CHANNELS 3 Zrotation Yrotation Xrotation
						End Site
						{
							OFFSET 0.000000 0.000000 0.000000
						}
					}
				}
			}
		}
	}
	JOINT RHipJoint
	{
		OFFSET 0.000000 0.000000 0.000000
		CHANNELS 3 Zrotation Yrotation Xrotation
		JOINT RightUpLeg
		{
			OFFSET -1.305520 -1.794630 0.839290
			CHANNELS 3 Zrotation Yrotation Xrotation
			JOINT RightLeg
			{
				OFFSET -2.542530 -6.985550 0.000000
				CHANNELS 3 Zrotation Yrotation Xrotation
				JOINT RightFoot
				{
					OFFSET -2.568260 -7.056230 0.000000
					CHANNELS 3 Zrotation Yrotation Xrotation
					JOINT RightToeBase
					{
						OFFSET -0.164730 -0.452590 2.363150
						CHANNELS 3 Zrotation Yrotation Xrotation
						End Site
						{
							OFFSET 0.000000 0.000000 0.000000
						}
					}
				}
			}
		}
	}
}
MOTION
Frames: 28
Frame Time: 0.008333
-9.216686 16.587226 0.144928 -14.952633 84.137624 3.064525 -11.211069 2.791129 -2.155317 -5.623114 2.708814 -1.279348 -0.250878 2.051946 32.377797 1.193811 6.872765 8.428144 1.620201 -0.000000 -81.287600 8.751432 0.680412 1.409957 4.302411 3.923297 -43.949028 2.241501 -1.482663 18.546886 0.520263 3.294780 12.729551 0.691101 0.000000 -51.804399
-9.003442 16.593364 0.147334 -21.658808 84.465782 -3.609286 -11.469006 2.654198 -2.203872 -4.871861 3.234072 -2.764504 0.053280 2.158104 35.442716 1.424818 8.199489 10.221454 2.120400 -0.000000 -78.667800 8.621006 0.496786 1.346321 4.937812 3.965047 -43.956643 2.227863 -1.645635 20.319407 0.434276 2.804768 11.855173 0.482000 -0.000000 -51.345000
-8.794265 16.605554 0.150873 -28.364259 84.775763 -10.283619 -11.734852 2.475333 -2.258098 -4.223041 3.815720 -4.377235 0.333292 2.234624 38.547088 1.691184 9.814407 11.823083 2.761500 0.000000 -74.583800 8.478455 0.305320 1.276551 5.561235 3.878843 -43.839630 2.247478 -1.773920 21.815698 0.359415 2.380749 10.689125 0.295400 0.000000 -51.462700
-8.589272 16.623510 0.156134 -34.951048 85.065658 -16.834395 -12.000075 2.268581 -2.314106 -3.695146 4.425896 -6.108198 0.574354 2.293230 41.653366 1.979189 11.661177 13.102826 3.520200 0.000000 -69.224100 8.330577 0.116230 1.202215 6.152714 3.681669 -43.590163 2.295153 -1.865143 23.008435 0.294759 2.025098 9.332814 0.138300 -0.000000 -52.029700
-8.388440 16.646884 0.163691 -41.345763 85.344758 -23.183248 -12.251508 2.049547 -2.368458 -3.306700 5.030099 -7.941970 0.769649 2.346980 44.715565 2.273092 13.652817 13.973696 4.344600 0.000001 -63.057700 8.187960 -0.060107 1.124630 6.688202 3.386917 -43.205683 2.363210 -1.918445 23.883563 0.239229 1.739834 7.897067 0.015200 -0.000000 -52.887900
-8.191634 16.675305 0.173918 -47.564872 85.629471 -29.341966 -12.477224 1.831879 -2.417252 -3.072868 5.590196 -9.860584 0.920983 2.406367 47.684268 2.558302 15.683132 14.412199 5.165700 0.000000 -56.747300 8.060645 -0.215798 1.045282 7.143007 3.006990 -42.691616 2.442992 -1.934523 24.437789 0.191911 1.521662 6.493160 -0.074801 -0.000000 -53.872501
-7.998610 16.708398 0.186826 -53.750725 85.935812 -35.447692 -12.670329 1.625462 -2.455720 -3.001645 6.069636 -11.848134 1.035759 2.477469 50.516645 2.822725 17.638932 14.450344 5.911300 0.000000 -50.942000 7.955231 -0.346673 0.965879 7.496930 2.556028 -42.058936 2.525809 -1.915416 24.678229 0.151923 1.358388 5.222492 -0.137400 -0.000000 -54.836500
-7.809039 16.745773 0.202168 -60.155863 86.273748 -41.747985 -12.828729 1.436873 -2.479137 -3.095018 6.439510 -13.892479 1.122729 2.562492 53.180342 3.056792 19.414409 14.148816 6.518800 -0.000000 -46.061101 7.874878 -0.450855 0.888381 7.735044 2.050451 -41.324991 2.603478 -1.864153 24.622646 0.118443 1.231486 4.165089 -0.181100 0.000001 -55.670500
-7.622481 16.786996 0.219426 -67.118397 86.642930 -48.577337 -12.953565 1.270649 -2.484474 -3.348883 6.684486 -15.982735 1.188991 2.661539 55.651564 3.252563 20.918165 13.566628 6.939200 0.000001 -42.191901 7.820202 -0.527762 0.814255 7.849998 1.508466 -40.509082 2.668885 -1.784433 24.298749 0.090400 1.118981 3.372591 -0.214800 -0.000000 -56.310299
-7.438580 16.831700 0.237770 -75.059601 87.029192 -56.356053 -13.047514 1.129636 -2.470022 -3.751241 6.800659 -18.104846 1.239102 2.773191 57.904493 3.405126 22.088221 12.778815 7.152100 -0.000000 -39.343600 7.790021 -0.577303 0.743769 7.844078 0.949856 -39.628330 2.716868 -1.680123 23.740997 0.066277 0.998823 2.864708 -0.246700 0.000000 -56.737301
-7.256941 16.879426 0.256236 -84.424093 87.403985 -65.531194 -13.112246 1.016449 -2.436241 -4.280038 6.796585 -20.241803 1.274521 2.896373 59.914975 3.511133 22.885968 11.852036 7.158400 -0.000000 -37.386501 7.783130 -0.599247 0.675904 7.731332 0.395105 -38.695979 2.744896 -1.554850 22.986777 0.044020 0.851324 2.629304 -0.283800 0.000000 -56.968900
-7.077300 16.929751 0.273688 -95.477907 87.725607 -76.374447 -13.144616 0.933446 -2.385278 -4.904187 6.688230 -22.371472 1.294797 3.029456 61.657130 3.569982 23.303596 10.860859 6.985700 -0.000000 -36.240400 7.801843 -0.592928 0.608227 7.535439 -0.137861 -37.718680 2.753306 -1.412369 22.073229 0.021586 0.663475 2.629813 -0.330900 0.000000 -57.048900
-6.899419 16.982203 0.289101 -107.945218 87.946782 -88.620778 -13.134856 0.880818 -2.322843 -5.583753 6.500745 -24.466976 1.299485 3.168952 63.112326 3.582241 23.351246 9.850526 6.666800 0.000000 -35.638200 7.853476 -0.559546 0.537996 7.288940 -0.636469 -36.695388 2.745698 -1.257421 21.033491 -0.003013 0.429416 2.811378 -0.390600 0.000001 -57.035299
-6.723097 17.036293 0.301612 -120.828677 88.031225 -101.282383 -13.071930 0.850157 -2.252197 -6.279167 6.248296 -26.502525 1.291280 3.303460 64.263611 3.554075 23.081833 8.902377 6.265000 0.000000 -35.651000 7.945290 -0.506388 0.465227 7.024133 -1.098803 -35.627101 2.728514 -1.096318 19.894634 -0.031404 0.150855 3.112672 -0.463500 0.000000 -56.993500
-6.548129 17.091521 0.310592 -132.718522 87.965063 -112.962932 -12.955594 0.824272 -2.179692 -6.956179 5.950491 -28.449401 1.274730 3.418241 65.108460 3.492464 22.556361 8.041659 5.823200 -0.000000 -36.064500 8.074063 -0.448568 0.390204 6.767419 -1.532940 -34.507662 2.709422 -0.935938 18.676981 -0.064329 -0.162437 3.474448 -0.547100 0.000000 -56.983700
-6.374462 17.147281 0.315720 -142.608227 87.764034 -122.669350 -12.802419 0.784110 -2.110332 -7.594723 5.625914 -30.281420 1.253025 3.501355 65.648368 3.407276 21.855905 7.288642 5.382800 -0.000000 -36.734400 8.221834 -0.402386 0.311486 6.532714 -1.952428 -33.329056 2.694524 -0.780757 17.396799 -0.100563 -0.492197 3.849341 -0.636500 -0.000000 -57.053800
-6.201810 17.202888 0.316987 -150.282001 87.466592 -130.193526 -12.634812 0.720255 -2.046064 -8.189962 5.294586 -31.986798 1.225365 3.550345 65.891472 3.309790 21.070331 6.642395 4.973000 0.000000 -37.497600 8.367411 -0.376759 0.226398 6.324438 -2.371203 -32.089039 2.686993 -0.631552 16.069173 -0.136456 -0.812815 4.208235 -0.725000 0.000000 -57.235499
-6.029880 17.257591 0.314757 -156.032365 87.116528 -135.833892 -12.468351 0.634645 -1.987481 -8.744340 4.979810 -33.563468 1.188461 3.570298 65.852441 3.210841 20.283817 6.078496 4.608400 0.000000 -38.141400 8.498037 -0.372438 0.132380 6.142313 -2.800594 -30.786939 2.687682 -0.487122 14.706268 -0.166768 -1.095084 4.542626 -0.805000 0.000001 -57.544300
-5.858395 17.310567 0.309512 -160.288125 86.745967 -140.019685 -12.308363 0.532715 -1.935856 -9.260903 4.702168 -35.017990 1.139380 3.567879 65.551972 3.119427 19.563350 5.560122 4.292100 0.000000 -38.532199 8.611012 -0.386351 0.027997 5.985068 -3.247781 -29.428083 2.696404 -0.347021 13.319251 -0.186629 -1.313047 4.858961 -0.869301 -0.000000 -57.972600
-5.686974 17.360986 0.301970 -163.474372 86.377621 -143.174758 -12.154242 0.422343 -1.889770 -9.746768 4.475902 -36.361727 1.076062 3.548636 65.012753 3.041793 18.952646 5.046301 4.019900 0.000001 -38.585100 8.709805 -0.415164 -0.084380 5.846858 -3.717696 -28.023385 2.711923 -0.211549 11.918895 -0.191945 -1.445638 5.176621 -0.912600 0.000000 -58.502901
-5.515261 17.408008 0.292770 -165.917047 86.022045 -145.617754 -12.003038 0.308953 -1.847847 -10.208230 4.308046 -37.611474 0.997371 3.516426 64.258679 2.980380 18.464730 4.495075 3.779500 -0.000000 -38.281100 8.799518 -0.456384 -0.200876 5.720598 -4.209875 -26.591585 2.732543 -0.082263 10.518635 -0.180660 -1.481237 5.518303 -0.931500 -0.000001 -59.104000
-5.342886 17.450874 0.282546 -167.852505 85.684177 -147.575508 -11.852017 0.196982 -1.807489 -10.651312 4.200006 -38.785156 0.902349 3.473853 63.309883 2.934201 18.085427 3.873491 3.555600 0.000000 -37.656600 8.884551 -0.508486 -0.316286 5.598903 -4.718960 -25.154808 2.756190 0.038993 9.134176 -0.152776 -1.418227 5.904509 -0.925400 -0.000000 -59.739900
-5.169608 17.488996 0.271728 -169.442371 85.365970 -149.202210 -11.699486 0.090753 -1.764700 -11.080994 4.149512 -39.896238 0.790020 3.422355 62.179474 2.899570 17.780018 3.166564 3.333900 -0.000000 -36.810000 8.967999 -0.570750 -0.424647 5.474630 -5.235951 -23.733556 2.780563 0.150663 7.782503 -0.110302 -1.264921 6.348185 -0.895301 -0.000000 -60.376199
-4.995242 17.521792 0.260527 -170.764771 85.066397 -150.564266 -11.545260 -0.008485 -1.717128 -11.496677 4.150926 -40.959439 0.659298 3.363153 60.877763 2.870678 17.498811 2.369547 3.100600 0.000000 -35.827500 9.050069 -0.642176 -0.522109 5.346471 -5.746847 -22.349639 2.804030 0.251562 6.481467 -0.057345 -1.040188 6.848182 -0.844800 -0.000000 -60.977500
-4.819710 17.548921 0.248919 -171.861715 84.784033 -151.698524 -11.390212 -0.098745 -1.661021 -11.895786 4.197090 -41.979403 0.509348 3.296310 59.406812 2.841410 17.192923 1.501626 2.850700 -0.000000 -34.838299 9.129947 -0.722277 -0.605187 5.215175 -6.238252 -21.014601 2.825202 0.341746 5.245089 0.001062 -0.769476 7.391260 -0.778800 0.000000 -61.521500
-4.643058 17.570134 0.236689 -172.731684 84.516002 -152.598988 -11.236214 -0.180182 -1.594180 -12.271087 4.279217 -42.957588 0.339827 3.221519 57.766149 2.805908 16.819637 0.594492 2.586100 0.000000 -33.952600 9.205080 -0.809910 -0.673406 5.086647 -6.697965 -19.734624 2.843574 0.422162 4.083400 0.059423 -0.483042 7.951366 -0.704400 -0.000000 -61.995200
-4.465368 17.585197 0.223459 -173.350946 84.258435 -153.240262 -11.085786 -0.253909 -1.514874 -12.612450 4.387112 -43.889760 0.151383 3.137805 55.954083 2.759876 16.352226 -0.310350 2.316100 -0.000001 -33.272700 9.272205 -0.903750 -0.728420 4.969886 -7.117405 -18.507617 2.859355 0.494665 3.001373 0.112746 -0.211615 8.493535 -0.629600 0.000000 -62.394400
-4.286806 17.594042 0.208758 -173.697593 84.006573 -153.601804 -10.941481 -0.321693 -1.421673 -12.908340 4.509485 -44.767734 -0.054135 3.043558 53.968974 2.701241 15.783757 -1.167164 2.055000 0.000000 -32.874500 9.328306 -1.002164 -0.773696 4.874590 -7.493654 -17.324211 2.873257 0.561793 1.997597 0.157210 0.017451 8.980224 -0.563401 -0.000000 -62.729699
